<svg width="80" height="80" viewBox="0 0 80 80" fill="none" xmlns="http://www.w3.org/2000/svg">
<g clip-path="url(#clip0)">
<path fill-rule="evenodd" clip-rule="evenodd" d="M29.072 30.409C31.772 31.117 35.805 32.779 39.696 36.669C43.586 40.559 45.248 44.594 45.956 47.293C46.2311 48.3502 46.1474 49.4687 45.7181 50.4732C45.2888 51.4777 44.5382 52.3112 43.584 52.843L43.386 52.947L21.174 63.917C18.482 65.097 16.932 64.001 16.046 63.14L15.963 63.057L15.485 62.58L7.265 70.8C6.89156 71.1727 6.59577 71.6158 6.39477 72.1037C6.19376 72.5915 6.09153 73.1144 6.094 73.642C6.094 74.719 6.51 75.728 7.264 76.482C7.99113 77.2077 8.96835 77.6278 9.99528 77.6561C11.0222 77.6843 12.0211 77.3186 12.787 76.634L12.947 76.483L19.978 69.452C21.172 68.2607 22.7898 67.5916 24.4765 67.5916C26.1632 67.5916 27.781 68.2607 28.975 69.452C29.5665 70.0417 30.0353 70.7429 30.354 71.515C30.6728 72.2871 30.8352 73.1147 30.832 73.95C30.832 75.653 30.192 77.271 28.975 78.448C28.335 79.068 27.547 78.677 27.318 78.448C27.0984 78.2282 26.975 77.9302 26.975 77.6195C26.975 77.3088 27.0984 77.0108 27.318 76.791C27.6911 76.4183 27.9867 75.9753 28.1875 75.4877C28.3883 75 28.4905 74.4774 28.488 73.95C28.4906 73.4224 28.3885 72.8996 28.1877 72.4118C27.9869 71.924 27.6913 71.4808 27.318 71.108C26.5907 70.3824 25.6135 69.9625 24.5865 69.9345C23.5596 69.9064 22.5608 70.2722 21.795 70.957L21.635 71.108L14.605 78.14C14.0144 78.7312 13.3128 79.1998 12.5406 79.519C11.7683 79.8382 10.9406 80.0017 10.105 80C8.476 80 6.847 79.38 5.607 78.14C5.01522 77.55 4.54637 76.8485 4.22761 76.0761C3.90885 75.3036 3.74651 74.4756 3.75 73.64C3.75 72.037 4.334 70.528 5.401 69.357L5.607 69.142L13.827 60.922L13.307 60.402C12.6649 59.7602 12.2304 58.9403 12.0599 58.0485C11.8894 57.1568 11.9909 56.2344 12.351 55.401L12.448 55.19L23.418 32.978C23.9228 31.9662 24.76 31.1587 25.7894 30.6908C26.8188 30.2228 27.9778 30.123 29.072 30.408V30.409ZM16.94 51.389L14.55 56.229C14.3606 56.6124 14.2876 57.0429 14.3403 57.4673C14.3929 57.8918 14.5687 58.2914 14.846 58.617L14.965 58.745L17.62 61.4C18.242 62.022 19.17 62.208 19.977 61.886L20.137 61.815L24.977 59.425C23.9987 57.777 22.8164 56.259 21.458 54.907C20.1061 53.5485 18.5881 52.3662 16.94 51.388V51.389ZM20.438 44.307L17.982 49.28C19.8581 50.3754 21.5839 51.7099 23.116 53.25C24.5173 54.6456 25.7495 56.2013 26.787 57.885L27.085 58.383L32.058 55.927C30.988 53.421 29.402 51.106 27.331 49.035C25.26 46.964 22.945 45.377 20.438 44.307ZM25.6 33.865L25.519 34.017L24.83 35.411C27.638 36.234 31.302 37.947 34.86 41.505C36.804 43.45 38.379 45.619 39.54 47.952C39.828 48.532 39.592 49.235 39.013 49.523C38.845 49.607 37.899 49.944 37.442 48.996C36.419 46.878 34.967 44.927 33.202 43.162C29.921 39.881 26.565 38.341 24.033 37.62L23.774 37.549L21.476 42.202C24.213 43.388 26.735 45.125 28.986 47.377C31.098 49.488 32.756 51.837 33.933 54.377L34.163 54.887L42.347 50.845C42.8759 50.5805 43.2977 50.1423 43.5419 49.6037C43.786 49.0652 43.8376 48.4591 43.688 47.887C43.053 45.468 41.558 41.845 38.038 38.326C34.518 34.806 30.896 33.311 28.476 32.676C27.9324 32.5342 27.3574 32.5737 26.8383 32.7885C26.3193 33.0033 25.8845 33.3816 25.6 33.866V33.865ZM60.374 42.485C61.574 42.485 62.559 43.421 62.639 44.601L62.644 44.756V47.994C62.644 49.194 61.709 50.179 60.529 50.26L60.374 50.265H57.135C55.935 50.265 54.95 49.329 54.87 48.149L54.865 47.994V44.756C54.865 43.556 55.8 42.571 56.98 42.491L57.135 42.485H60.374ZM60.301 44.829H57.21V47.921H60.302V44.829H60.301ZM74.198 32.553C74.6609 32.7853 75.0731 33.1072 75.4108 33.4999C75.7484 33.8926 76.0048 34.3485 76.165 34.841C76.493 35.841 76.412 36.909 75.937 37.849C75.7047 38.3116 75.383 38.7236 74.9904 39.0611C74.5978 39.3985 74.1423 39.6548 73.65 39.815C72.65 40.143 71.582 40.062 70.642 39.588C64.047 36.254 56.082 36.655 49.856 40.634C49.4205 40.9141 48.9337 41.105 48.4239 41.1956C47.9141 41.2863 47.3914 41.2748 46.886 41.162C45.94 40.9564 45.1038 40.4073 44.539 39.621L44.413 39.435L44.36 39.347C43.764 38.297 43.322 35.477 45.605 33.996C54.102 28.486 65.059 27.933 74.198 32.553ZM46.88 35.963C45.827 36.645 46.197 37.863 46.401 38.194C46.6327 38.5434 46.9923 38.7878 47.4025 38.8748C47.8126 38.9617 48.2404 38.8843 48.594 38.659C55.516 34.236 64.369 33.79 71.7 37.496C72.486 37.894 73.495 37.599 73.846 36.791C74.318 35.705 73.522 34.837 73.141 34.645C64.743 30.399 54.681 30.904 46.881 35.962L46.88 35.963ZM41.524 0.198003C42.0164 0.358292 42.472 0.614685 42.8646 0.952329C43.2572 1.28997 43.5789 1.70216 43.811 2.165C48.432 11.305 47.88 22.261 42.369 30.758C41.518 32.07 40.224 32.482 39.079 32.482C38.172 32.482 37.359 32.224 36.929 31.95C36.492 31.6723 36.1144 31.3108 35.818 30.8864C35.5216 30.4619 35.3122 29.9829 35.202 29.477C35.0894 28.9716 35.0782 28.4488 35.169 27.939C35.2598 27.4292 35.4508 26.9425 35.731 26.507C38.508 22.161 39.581 16.94 38.751 11.807C38.7051 11.5017 38.7815 11.1907 38.9635 10.9414C39.1456 10.6921 39.4187 10.5248 39.7235 10.4756C40.0282 10.4265 40.34 10.4996 40.5912 10.679C40.8424 10.8585 41.0127 11.1298 41.065 11.434C41.986 17.135 40.794 22.937 37.705 27.769C37.475 28.129 37.192 29.306 38.17 29.961C38.816 30.394 39.72 30.536 40.402 29.483C45.461 21.683 45.965 11.62 41.72 3.222C41.527 2.841 40.809 1.912 39.574 2.517C38.339 3.122 38.676 4.282 38.868 4.663C39.165 5.25 39.44 5.857 39.686 6.469C39.7434 6.61182 39.7721 6.76453 39.7705 6.91844C39.7688 7.07234 39.7369 7.22441 39.6765 7.36598C39.6161 7.50754 39.5284 7.63582 39.4184 7.74349C39.3084 7.85116 39.1783 7.93612 39.0355 7.9935C38.8927 8.05089 38.74 8.07959 38.5861 8.07795C38.4322 8.07632 38.2801 8.04439 38.1385 7.98399C37.997 7.92358 37.8687 7.83589 37.761 7.72591C37.6533 7.61593 37.5684 7.48582 37.511 7.343C37.291 6.793 37.043 6.248 36.777 5.721C36.5421 5.25954 36.4011 4.75607 36.3622 4.23974C36.3232 3.72342 36.387 3.20449 36.55 2.713C36.7102 2.22075 36.9665 1.76516 37.3039 1.3726C37.6414 0.980034 38.0534 0.658297 38.516 0.426003C38.9775 0.191185 39.481 0.0502961 39.9973 0.0115016C40.5137 -0.0272928 41.0326 0.0367788 41.524 0.200003V0.198003ZM58.869 23.613C59.1798 23.613 59.4779 23.7365 59.6977 23.9563C59.9175 24.1761 60.041 24.4742 60.041 24.785C60.041 25.0958 59.9175 25.3939 59.6977 25.6137C59.4779 25.8335 59.1798 25.957 58.869 25.957C58.5582 25.957 58.2601 25.8335 58.0403 25.6137C57.8205 25.3939 57.697 25.0958 57.697 24.785C57.697 24.4742 57.8205 24.1761 58.0403 23.9563C58.2601 23.7365 58.5582 23.613 58.869 23.613ZM31.609 13.719C32.809 13.719 33.794 14.654 33.874 15.834L33.88 15.989V19.228C33.88 20.428 32.944 21.413 31.764 21.493L31.609 21.498H28.37C27.17 21.498 26.184 20.563 26.104 19.383L26.099 19.228V15.99C26.099 14.79 27.034 13.805 28.214 13.725L28.37 13.72H31.608L31.609 13.719ZM58.362 16.83C58.5159 16.83 58.6683 16.8603 58.8105 16.9192C58.9527 16.9781 59.0819 17.0644 59.1907 17.1733C59.2996 17.2821 59.3859 17.4113 59.4448 17.5535C59.5037 17.6957 59.534 17.8481 59.534 18.002C59.534 18.1559 59.5037 18.3083 59.4448 18.4505C59.3859 18.5927 59.2996 18.7219 59.1907 18.8307C59.0819 18.9396 58.9527 19.0259 58.8105 19.0848C58.6683 19.1437 58.5159 19.174 58.362 19.174C58.0512 19.174 57.7531 19.0505 57.5333 18.8307C57.3135 18.6109 57.19 18.3128 57.19 18.002C57.19 17.6912 57.3135 17.3931 57.5333 17.1733C57.7531 16.9535 58.0512 16.83 58.362 16.83ZM31.536 16.062H28.444V19.154H31.536V16.062ZM51.58 16.322C51.7339 16.322 51.8863 16.3523 52.0285 16.4112C52.1707 16.4701 52.2999 16.5564 52.4087 16.6653C52.5176 16.7741 52.6039 16.9033 52.6628 17.0455C52.7217 17.1877 52.752 17.3401 52.752 17.494C52.752 17.6479 52.7217 17.8003 52.6628 17.9425C52.6039 18.0847 52.5176 18.2139 52.4087 18.3227C52.2999 18.4316 52.1707 18.5179 52.0285 18.5768C51.8863 18.6357 51.7339 18.666 51.58 18.666C51.2692 18.666 50.9711 18.5425 50.7513 18.3227C50.5315 18.1029 50.408 17.8048 50.408 17.494C50.408 17.1832 50.5315 16.8851 50.7513 16.6653C50.9711 16.4455 51.2692 16.322 51.58 16.322Z" fill="#2C6456"/>
</g>
<defs>
<clipPath id="clip0">
<rect width="80" height="80" fill="white"/>
</clipPath>
</defs>
</svg>
