<svg width="80" height="80" viewBox="0 0 80 80" fill="none" xmlns="http://www.w3.org/2000/svg">
<g clip-path="url(#clip0)">
<path fill-rule="evenodd" clip-rule="evenodd" d="M78.815 46.16C77.324 41.507 74.575 37.51 70.813 34.497C73.747 32.89 75.722 30.757 76.533 28.24C77.739 24.504 76.163 20.764 72.946 19.726C70.76 19.021 68.882 19.568 67.71 20.136C67.09 18.989 65.887 17.449 63.7 16.744C62.06 16.214 60.328 16.468 58.825 17.457C57.441 18.369 56.371 19.824 55.813 21.554C55.082 23.82 55.297 26.385 56.399 29.078C53.2361 28.9442 50.0774 29.4272 47.099 30.5C45.212 26.21 42.181 22.607 38.225 19.98C34.2642 17.3566 29.6324 15.9278 24.882 15.864C25.276 15.021 25.587 14.187 25.808 13.365C25.8505 13.2156 25.8629 13.0593 25.8445 12.9052C25.826 12.751 25.7772 12.602 25.7007 12.4668C25.6242 12.3317 25.5216 12.2131 25.3988 12.118C25.2761 12.0228 25.1357 11.953 24.9858 11.9126C24.8358 11.8722 24.6794 11.862 24.5255 11.8826C24.3715 11.9031 24.2233 11.9541 24.0892 12.0325C23.9552 12.1108 23.838 12.2151 23.7446 12.3391C23.6512 12.4632 23.5833 12.6045 23.545 12.755C23.219 13.964 22.663 15.215 21.885 16.499L21.872 16.522C21.2 17.6117 20.443 18.6466 19.608 19.617C19.3093 19.9655 18.92 20.2247 18.4833 20.3659C18.0465 20.507 17.5792 20.5247 17.133 20.417C11.802 19.102 8.311 16.66 7.305 13.54C6.489 11.014 7.382 8.622 9.382 7.977C11.468 7.304 13.152 8.363 13.616 8.703C13.951 8.948 14.386 9.018 14.78 8.892C15.174 8.765 15.486 8.454 15.615 8.059C15.795 7.51 16.54 5.667 18.627 4.994C20.627 4.348 22.749 5.768 23.563 8.292L23.597 8.399C23.6909 8.69142 23.8959 8.93528 24.1678 9.07811C24.4397 9.22094 24.7568 9.25133 25.0509 9.16274C25.345 9.07415 25.5925 8.87366 25.7403 8.6044C25.8881 8.33515 25.9242 8.01865 25.841 7.723C25.8261 7.67353 25.8108 7.6242 25.795 7.575C24.59 3.839 21.125 1.725 17.907 2.764C15.721 3.469 14.517 5.01 13.898 6.156C12.725 5.588 10.848 5.041 8.662 5.746C5.445 6.785 3.868 10.524 5.074 14.26C5.854 16.68 7.71 18.746 10.46 20.33C6.49612 23.123 3.44107 27.02 1.675 31.536C-0.37647 36.8128 -0.548792 42.6351 1.187 48.024C2.72516 52.8257 5.71009 57.0345 9.733 60.074C9.85561 60.1672 9.99541 60.2352 10.1444 60.2743C10.2934 60.3133 10.4486 60.3225 10.6011 60.3014C10.7537 60.2803 10.9006 60.2294 11.0334 60.1514C11.1662 60.0734 11.2823 59.97 11.375 59.847C11.765 59.331 11.665 58.597 11.148 58.206C7.50877 55.4561 4.80881 51.6482 3.418 47.304C0.279997 37.587 4.27 26.842 12.914 21.52C13.838 21.895 14.831 22.227 15.889 22.515C12.09 24.343 8.921 27.392 6.874 31.391C3.688 37.611 3.969 44.894 7.624 50.874C11.268 56.834 17.612 60.391 24.596 60.391C26.952 60.391 29.236 59.99 31.406 59.199C31.561 59.861 31.742 60.519 31.952 61.173L32.043 61.446C26.5422 63.4068 20.4901 63.1194 15.2 60.646C14.9196 60.523 14.6022 60.5146 14.3157 60.6227C14.0292 60.7307 13.7963 60.9466 13.667 61.2242C13.5376 61.5017 13.522 61.8189 13.6235 62.1077C13.725 62.3966 13.9355 62.6343 14.21 62.77C17.4595 64.2883 21.0023 65.0758 24.589 65.077C27.4174 65.0759 30.2245 64.5874 32.887 63.633C35.149 68.766 39.066 72.939 44.123 75.541C47.5947 77.3377 51.446 78.2772 55.355 78.281C57.879 78.281 60.416 77.888 62.889 77.095C69.149 75.09 74.252 70.768 77.259 64.925C78.7459 62.0553 79.649 58.9192 79.9159 55.6982C80.1828 52.4772 79.8083 49.2353 78.814 46.16H78.815ZM58.043 22.274C58.439 21.049 59.173 20.034 60.113 19.415C60.569 19.115 61.219 18.816 62 18.816C62.308 18.816 62.636 18.863 62.98 18.974C65.068 19.647 65.814 21.49 65.993 22.04C66.0568 22.2344 66.1656 22.4109 66.3105 22.5553C66.4555 22.6997 66.6324 22.8079 66.827 22.871C67.221 22.998 67.655 22.928 67.99 22.684C68.457 22.343 70.14 21.284 72.226 21.957C74.226 22.602 75.119 24.994 74.303 27.52C73.297 30.64 69.806 33.082 64.475 34.396C64.0289 34.5036 63.5617 34.486 63.125 34.345C62.6883 34.204 62.299 33.9452 62 33.597C58.442 29.415 57.037 25.394 58.043 22.274ZM48.593 32.468C51.5026 31.5273 54.5761 31.2025 57.618 31.514C58.143 32.403 58.759 33.299 59.464 34.198C59.409 34.187 59.355 34.173 59.301 34.163C55.734 33.4727 52.0479 33.7373 48.616 34.93C48.4417 34.1674 48.2311 33.4135 47.985 32.671C48.185 32.601 48.388 32.533 48.592 32.468H48.593ZM23.565 18.229C33.6 17.749 42.68 24.012 45.785 33.634C48.648 42.508 45.595 52.287 38.349 57.98C38.1251 57.103 37.969 56.21 37.882 55.309C42.365 51.28 44.817 45.415 44.499 39.457C44.516 39.365 44.522 39.271 44.516 39.177C44.3984 37.3513 44.0317 35.5503 43.426 33.824C43.3865 33.7121 43.3302 33.6069 43.259 33.512C40.519 26.091 33.931 21.16 25.975 20.616C24.5497 20.5177 23.1181 20.5673 21.703 20.764C22.403 19.914 23.025 19.069 23.565 18.229ZM37.885 51.962C38.097 49.778 38.724 47.633 39.758 45.624C40.4018 44.3711 41.1894 43.1975 42.105 42.127C41.7486 45.7627 40.2743 49.1986 37.885 51.962ZM32.197 45.429C30.8847 49.0865 30.4671 53.0051 30.979 56.857C28.9441 57.6492 26.7787 58.0529 24.595 58.047C18.435 58.047 12.838 54.909 9.625 49.652C6.397 44.374 6.149 37.947 8.96 32.459C12.212 26.107 18.67 22.466 25.815 22.954C32.642 23.421 38.327 27.547 40.858 33.8C36.8784 36.7282 33.8637 40.7778 32.2 45.43L32.197 45.429ZM75.175 63.853C73.8435 66.4566 72.0089 68.7703 69.7773 70.6602C67.5456 72.55 64.9614 73.9785 62.174 74.863C59.3915 75.763 56.4582 76.1022 53.5438 75.8611C50.6293 75.6199 47.7917 74.8031 45.195 73.458C42.5912 72.1269 40.2773 70.2925 38.3872 68.061C36.4972 65.8295 35.0685 63.2453 34.184 60.458C31.344 51.592 34.404 41.836 41.634 36.153C41.857 37.023 42.013 37.902 42.1 38.781C40.31 40.387 38.823 42.324 37.675 44.551C36.4711 46.8741 35.7399 49.4128 35.5238 52.0204C35.3077 54.6279 35.611 57.2524 36.416 59.742C36.468 59.904 36.524 60.063 36.58 60.222C36.588 60.252 36.599 60.282 36.61 60.312C39.248 67.807 45.75 72.84 53.72 73.5C54.308 73.548 54.892 73.573 55.472 73.573C62.966 73.573 69.612 69.548 73.093 62.783C74.2969 60.4596 75.0281 57.9205 75.2442 55.3126C75.4603 52.7047 75.157 50.0799 74.352 47.59C74.0056 46.5057 73.5719 45.4512 73.055 44.437C72.9122 44.1625 72.6667 43.9557 72.372 43.8615C72.0772 43.7674 71.7573 43.7936 71.4818 43.9344C71.2063 44.0752 70.9977 44.3193 70.9015 44.6133C70.8052 44.9074 70.8291 45.2275 70.968 45.504C71.42 46.388 71.808 47.331 72.119 48.305C72.8294 50.5018 73.097 52.8177 72.9065 55.1187C72.716 57.4196 72.071 59.6599 71.009 61.71C67.7 68.14 61.149 71.763 53.913 71.164C47.173 70.606 41.621 66.501 39.124 60.336C43.1195 57.3988 46.1429 53.3315 47.804 48.659C49.1025 45.017 49.5149 41.1181 49.007 37.285C55.69 34.75 63.51 36.489 68.295 41.665C68.3993 41.7783 68.525 41.8698 68.6648 41.9344C68.8046 41.9989 68.9558 42.0352 69.1097 42.0412C69.2636 42.0471 69.4171 42.0226 69.5615 41.969C69.7059 41.9154 69.8382 41.8339 69.951 41.729C70.426 41.289 70.455 40.549 70.016 40.073C68.7273 38.68 67.2395 37.4854 65.601 36.528C66.594 36.263 67.529 35.958 68.405 35.615C72.29 38.409 75.114 42.288 76.584 46.875C77.4839 49.6577 77.823 52.5913 77.5815 55.506C77.34 58.4206 76.5227 61.2584 75.177 63.855L75.175 63.853Z" fill="#2C6456"/>
</g>
<defs>
<clipPath id="clip0">
<rect width="80" height="80" fill="white"/>
</clipPath>
</defs>
</svg>
