<svg width="21" height="21" viewBox="0 0 21 21" fill="none" xmlns="http://www.w3.org/2000/svg">
<path d="M14.8999 0H6.10017C2.73652 0 0 2.73652 0 6.10017V14.8998C0 18.2635 2.73652 21 6.10017 21H14.8998C18.2635 21 21 18.2635 21 14.8999V6.10017C21 2.73652 18.2635 0 14.8999 0ZM19.3594 14.8998C19.3594 17.3588 17.3588 19.3594 14.8999 19.3594H6.10017C3.64116 19.3594 1.64062 17.3588 1.64062 14.8999V6.10017C1.64062 3.64116 3.64116 1.64062 6.10017 1.64062H14.8998C17.3588 1.64062 19.3594 3.64116 19.3594 6.10017V14.8998Z" fill="#2C6456"/>
<path d="M10.5002 4.83947C7.37914 4.83947 4.84002 7.37859 4.84002 10.4996C4.84002 13.6207 7.37914 16.1598 10.5002 16.1598C13.6212 16.1598 16.1603 13.6207 16.1603 10.4996C16.1603 7.37859 13.6212 4.83947 10.5002 4.83947ZM10.5002 14.5192C8.28382 14.5192 6.48065 12.716 6.48065 10.4996C6.48065 8.28327 8.28382 6.4801 10.5002 6.4801C12.7165 6.4801 14.5197 8.28327 14.5197 10.4996C14.5197 12.716 12.7165 14.5192 10.5002 14.5192Z" fill="#2C6456"/>
<path d="M16.2422 5.57814C16.6952 5.57814 17.0625 5.21088 17.0625 4.75783C17.0625 4.30479 16.6952 3.93752 16.2422 3.93752C15.7891 3.93752 15.4219 4.30479 15.4219 4.75783C15.4219 5.21088 15.7891 5.57814 16.2422 5.57814Z" fill="#2C6456"/>
</svg>
