<svg width="23" height="19" viewBox="0 0 23 19" fill="none" xmlns="http://www.w3.org/2000/svg">
<path d="M0.406248 9.11043L5.70592 10.9872L7.75721 17.2463C7.88846 17.6472 8.40512 17.7954 8.74805 17.5294L11.7022 15.2444C12.0118 15.005 12.4529 14.9931 12.7765 15.216L18.1047 18.8863C18.4715 19.1393 18.9913 18.9485 19.0833 18.5279L22.9865 0.714279C23.0869 0.254846 22.6111 -0.128427 22.15 0.0407688L0.400038 8.00164C-0.136706 8.19804 -0.132029 8.91905 0.406248 9.11043ZM7.42662 9.98813L17.7841 3.93555C17.9703 3.82709 18.1618 4.0659 18.002 4.20658L9.454 11.7455C9.15354 12.0108 8.95973 12.366 8.90484 12.7514L8.61366 14.7988C8.57509 15.0722 8.17037 15.0993 8.09087 14.8347L6.97099 11.1013C6.84273 10.6755 7.02964 10.2206 7.42662 9.98813Z" fill="#2C6456"/>
</svg>
