<svg width="80" height="80" viewBox="0 0 80 80" fill="none" xmlns="http://www.w3.org/2000/svg">
<path fill-rule="evenodd" clip-rule="evenodd" d="M32.422 13.75H47.422C47.745 13.75 48.051 13.883 48.271 14.114L48.359 14.219L52.109 19.219L52.119 19.234C52.135 19.254 52.149 19.275 52.162 19.297L52.182 19.33C52.195 19.35 52.206 19.372 52.217 19.394L52.235 19.43C52.245 19.45 52.253 19.471 52.261 19.492L52.278 19.533L52.286 19.562C52.302 19.61 52.314 19.659 52.323 19.709L52.326 19.724L52.33 19.74V19.749L52.332 19.754L52.959 23.75H58.75V21.172C58.7507 20.5573 58.9847 19.9659 59.4048 19.5172C59.8249 19.0685 60.3997 18.7961 61.013 18.755L61.172 18.75H68.672C69.2867 18.7507 69.8781 18.9847 70.3268 19.4048C70.7755 19.8249 71.0479 20.3997 71.089 21.013L71.094 21.172V23.75H72.422C73.3618 23.7512 74.2655 24.1121 74.9474 24.7588C75.6294 25.4054 76.0379 26.2886 76.089 27.227L76.094 27.422V62.422C76.0926 63.3616 75.7315 64.265 75.0849 64.9468C74.4383 65.6285 73.5552 66.0369 72.617 66.088L72.422 66.094H7.422C6.48205 66.0928 5.57823 65.7317 4.89624 65.0849C4.21425 64.438 3.80587 63.5546 3.755 62.616L3.75 62.422V27.422C3.75 25.874 4.713 24.548 6.07 24.009L6.25 23.943V22.422C6.25065 21.8073 6.4847 21.2159 6.9048 20.7672C7.3249 20.3185 7.89971 20.0461 8.513 20.005L8.672 20H11.172C11.7867 20.0007 12.3781 20.2347 12.8268 20.6548C13.2755 21.0749 13.5479 21.6497 13.589 22.263L13.594 22.422V23.75H15V21.172C15.0007 20.5573 15.2347 19.9659 15.6548 19.5172C16.0749 19.0685 16.6497 18.7961 17.263 18.755L17.422 18.75H22.422C23.0367 18.7507 23.6281 18.9847 24.0768 19.4048C24.5255 19.8249 24.7979 20.3997 24.839 21.013L24.844 21.172V23.75H26.885L27.512 19.754V19.75L27.513 19.745L27.521 19.709C27.53 19.659 27.542 19.61 27.558 19.562L27.566 19.534L27.574 19.513L27.583 19.493L27.608 19.43L27.627 19.394C27.6377 19.3723 27.649 19.351 27.661 19.33L27.671 19.313L27.681 19.297L27.724 19.234L27.729 19.227L27.734 19.219L31.484 14.219C31.678 13.96 31.968 13.795 32.284 13.758L32.422 13.75H47.422H32.422ZM26.1 61.094H6.094V62.422C6.09445 62.7505 6.21648 63.0673 6.43657 63.3112C6.65666 63.5551 6.95924 63.7089 7.286 63.743L7.422 63.75H26.897C26.6079 63.2764 26.4006 62.7575 26.284 62.215L26.232 61.935L26.1 61.094ZM51.296 61.571L52.368 54.74C49.461 58.417 44.962 60.781 39.922 60.781C35.014 60.781 30.62 58.54 27.708 55.027L27.476 54.74L28.548 61.571C28.6364 62.1508 28.9208 62.6827 29.3539 63.0782C29.787 63.4736 30.3426 63.7086 30.928 63.744L31.094 63.75H48.75C49.3367 63.7524 49.9065 63.5536 50.3643 63.1867C50.8222 62.8198 51.1404 62.3071 51.266 61.734L51.297 61.571L52.369 54.74L51.296 61.571ZM73.75 61.094H53.743L53.611 61.934C53.522 62.503 53.341 63.034 53.082 63.514L52.947 63.75H72.422C72.7507 63.7495 73.0676 63.6274 73.3115 63.4071C73.5554 63.1868 73.7091 62.8839 73.743 62.557L73.75 62.422V61.094ZM15.193 38.594H6.093V58.75H25.733L24.296 49.596C23.846 46.7204 23.8137 43.7949 24.2 40.91L24.296 40.248L24.556 38.594H22.15C21.9039 39.3221 21.4358 39.9547 20.8117 40.4031C20.1875 40.8515 19.4385 41.0931 18.67 41.094C17.9018 41.0927 17.1533 40.8509 16.5295 40.4025C15.9058 39.9542 15.438 39.3217 15.192 38.594H15.193ZM73.75 38.594H55.288L55.548 40.248C55.998 43.1236 56.0303 46.0491 55.644 48.934L55.548 49.596L54.111 58.75H73.75V38.594ZM39.922 31.406C32.469 31.406 26.406 37.469 26.406 44.922C26.406 52.374 32.469 58.437 39.922 58.437C47.374 58.437 53.438 52.374 53.438 44.922C53.438 37.469 47.374 31.406 39.922 31.406ZM39.922 33.75C46.082 33.75 51.094 38.762 51.094 44.922C51.094 51.082 46.082 56.094 39.922 56.094C33.762 56.094 28.75 51.082 28.75 44.922C28.75 38.762 33.762 33.75 39.922 33.75ZM39.922 36.094C35.054 36.094 31.094 40.054 31.094 44.922C31.094 49.79 35.054 53.75 39.922 53.75C44.79 53.75 48.75 49.79 48.75 44.922C48.75 40.054 44.79 36.094 39.922 36.094ZM39.922 40C41.227 40.0013 42.4781 40.5203 43.4009 41.4431C44.3237 42.3658 44.8427 43.617 44.844 44.922C44.8427 46.227 44.3237 47.4781 43.4009 48.4009C42.4781 49.3237 41.227 49.8427 39.922 49.844C38.617 49.8427 37.3658 49.3237 36.4431 48.4009C35.5203 47.4781 35.0013 46.227 35 44.922C35.0013 43.617 35.5203 42.3658 36.4431 41.4431C37.3658 40.5203 38.617 40.0013 39.922 40ZM39.922 42.344C39.2385 42.3448 38.5833 42.6167 38.1 43.1C37.6167 43.5833 37.3448 44.2385 37.344 44.922C37.3448 45.6055 37.6167 46.2607 38.1 46.744C38.5833 47.2273 39.2385 47.4992 39.922 47.5C40.6055 47.4992 41.2607 47.2273 41.744 46.744C42.2273 46.2607 42.4992 45.6055 42.5 44.922C42.4992 44.2385 42.2273 43.5833 41.744 43.1C41.2607 42.6167 40.6055 42.3448 39.922 42.344ZM18.672 36.094C18.32 36.0945 17.9825 36.2346 17.7335 36.4835C17.4846 36.7325 17.3445 37.07 17.344 37.422C17.3445 37.774 17.4846 38.1115 17.7335 38.3605C17.9825 38.6094 18.32 38.7495 18.672 38.75C19.024 38.7495 19.3615 38.6094 19.6105 38.3605C19.8594 38.1115 19.9995 37.774 20 37.422C19.9995 37.07 19.8594 36.7325 19.6105 36.4835C19.3615 36.2346 19.024 36.0945 18.672 36.094ZM72.422 26.094H53.327L54.92 36.25H73.75V27.422C73.7495 27.07 73.6094 26.7325 73.3605 26.4835C73.1115 26.2346 72.774 26.0945 72.422 26.094ZM26.517 26.094H7.422C7.0933 26.0942 6.77631 26.2161 6.53219 26.4362C6.28807 26.6564 6.13411 26.9591 6.1 27.286L6.093 27.422V36.25H15.192C15.4381 35.5221 15.906 34.8896 16.5299 34.4412C17.1539 33.9928 17.9026 33.7511 18.671 33.75C20.219 33.75 21.545 34.713 22.084 36.07L22.15 36.25H24.922L26.516 26.094H26.517ZM50.17 21.094H29.674L27.476 35.104C30.383 31.426 34.881 29.062 39.922 29.062C44.83 29.062 49.224 31.304 52.135 34.816L52.368 35.104L50.17 21.094ZM68.672 21.094H61.172C61.14 21.094 61.112 21.114 61.1 21.141L61.094 21.171V23.75H68.75V21.172C68.75 21.1513 68.7418 21.1315 68.7272 21.1168C68.7125 21.1022 68.6927 21.094 68.672 21.094ZM22.422 21.094H17.422C17.39 21.094 17.362 21.114 17.35 21.141L17.344 21.171V23.75H22.5V21.172C22.5 21.1513 22.4918 21.1315 22.4772 21.1168C22.4625 21.1022 22.4427 21.094 22.422 21.094ZM11.172 22.344H8.672C8.64 22.344 8.612 22.364 8.6 22.391L8.594 22.421V23.75H11.25V22.422C11.25 22.4013 11.2418 22.3815 11.2272 22.3668C11.2125 22.3522 11.1927 22.344 11.172 22.344ZM46.836 16.094H33.008L31.016 18.75H48.828L46.836 16.094Z" fill="#2C6456"/>
</svg>
