<svg width="80" height="80" viewBox="0 0 80 80" fill="none" xmlns="http://www.w3.org/2000/svg">
<path fill-rule="evenodd" clip-rule="evenodd" d="M56.95 0C65.015 0 71.578 6.562 71.578 14.628C71.578 19.625 69.058 24.045 65.224 26.685L64.941 26.875H71.847V32.74H78.261V57.218H71.847V63.084H53.27V67.309H47.593V80H39.703V67.309H34.179V63.084H15.446V53.894H12.043L1.25 57.71V32.247L12.043 36.065H15.446V26.875H22.083C18.09 24.26 15.446 19.748 15.446 14.628C15.446 6.562 22.008 0 30.074 0C36.089 0 41.267 3.65 43.512 8.85C45.757 3.65 50.935 0 56.949 0H56.95ZM45.21 67.309H42.083V77.618H45.21V67.308V67.309ZM50.886 63.084H36.56V64.927H50.886V63.084ZM69.466 29.257H17.827V60.7H69.464V29.257H69.466ZM68.372 57.339V59.721H60.28V57.34H68.372V57.339ZM75.879 35.123H71.847V54.836H75.879V35.123ZM3.632 35.616V54.342L10.859 51.786V38.173L3.632 35.616ZM66.352 36.065V53.893H42.532V36.065H66.352ZM15.446 38.447H13.246V51.51H15.446V38.447ZM63.97 38.447H44.914V51.51H63.97V38.447ZM32.377 38.905C34.657 38.905 36.513 40.778 36.512 43.081C36.512 43.984 36.254 44.601 36.055 45.028L36.002 45.139L35.982 45.182C35.214 46.802 31.527 49.923 30.58 50.709L30.492 50.781L29.732 51.408L28.974 50.779L28.788 50.624C27.755 49.759 24.51 46.974 23.587 45.371L23.494 45.199L23.483 45.174C23.275 44.754 22.962 44.121 22.962 43.08C22.962 40.778 24.814 38.905 27.092 38.905C28.074 38.905 29.002 39.247 29.734 39.847C30.467 39.247 31.394 38.905 32.377 38.905ZM32.377 41.287C32.0758 41.2868 31.7794 41.3625 31.5153 41.5072C31.2512 41.652 31.0279 41.861 30.866 42.115L30.789 42.248L29.734 44.254L28.68 42.248C28.5283 41.9581 28.3001 41.7154 28.0201 41.5462C27.7401 41.3769 27.4191 41.2876 27.092 41.288C26.112 41.288 25.344 42.075 25.344 43.08C25.344 43.504 25.437 43.744 25.563 44.005L25.618 44.119L25.631 44.144C26.014 44.92 28.057 46.854 29.736 48.304C31.356 46.912 33.306 45.078 33.778 44.258L33.83 44.161L33.851 44.116C34.001 43.8 34.131 43.528 34.131 43.08C34.131 42.075 33.361 41.287 32.377 41.287ZM35.374 30.237V32.619H26.337V30.237H35.374ZM25.075 30.237V32.619H22.973V30.237H25.075ZM56.95 2.382C50.198 2.382 44.704 7.876 44.704 14.628C44.704 21.381 50.198 26.875 56.95 26.875C63.703 26.875 69.197 21.381 69.197 14.628C69.197 7.876 63.703 2.382 56.95 2.382ZM43.512 20.407C42.4236 22.922 40.6545 25.0832 38.404 26.647L38.066 26.875H48.958C46.5491 25.298 44.6557 23.0492 43.512 20.407ZM30.074 2.382C23.322 2.382 17.828 7.876 17.828 14.628C17.828 21.381 23.322 26.875 30.074 26.875C36.827 26.875 42.321 21.381 42.321 14.628C42.321 7.876 36.827 2.382 30.074 2.382ZM72.762 4.389C74.1086 5.72768 75.1764 7.32015 75.9035 9.07423C76.6306 10.8283 77.0026 12.7092 76.998 14.608C76.998 18.333 75.595 21.844 73.04 24.541L72.762 24.827L71.077 23.142C72.2019 22.0242 73.0938 20.6943 73.7013 19.2295C74.3088 17.7646 74.6197 16.1938 74.616 14.608C74.616 11.505 73.45 8.579 71.326 6.329L71.077 6.073L72.762 4.389ZM30.074 10.92C31.0571 10.9211 31.9996 11.3121 32.6948 12.0072C33.3899 12.7024 33.7809 13.6449 33.782 14.628C33.7809 15.6111 33.3899 16.5536 32.6948 17.2488C31.9996 17.9439 31.0571 18.3349 30.074 18.336C29.0909 18.3349 28.1484 17.9439 27.4532 17.2488C26.7581 16.5536 26.3671 15.6111 26.366 14.628C26.3671 13.6449 26.7581 12.7024 27.4532 12.0072C28.1484 11.3121 29.0909 10.9211 30.074 10.92ZM56.949 10.92C57.9321 10.9211 58.8746 11.3121 59.5698 12.0072C60.2649 12.7024 60.6559 13.6449 60.657 14.628C60.6559 15.6111 60.2649 16.5536 59.5698 17.2488C58.8746 17.9439 57.9321 18.3349 56.949 18.336C55.9659 18.3349 55.0234 17.9439 54.3282 17.2488C53.6331 16.5536 53.2421 15.6111 53.241 14.628C53.2421 13.6449 53.6331 12.7024 54.3282 12.0072C55.0234 11.3121 55.9659 10.9211 56.949 10.92ZM30.074 13.303C29.344 13.303 28.748 13.897 28.748 14.628C28.748 15.36 29.343 15.954 30.074 15.954C30.806 15.954 31.4 15.36 31.4 14.628C31.4 13.898 30.805 13.303 30.074 13.303ZM56.949 13.303C56.219 13.303 55.623 13.897 55.623 14.628C55.623 15.36 56.218 15.954 56.949 15.954C57.68 15.954 58.275 15.36 58.275 14.628C58.275 13.898 57.68 13.303 56.949 13.303Z" fill="#2C6456"/>
</svg>
