<svg width="80" height="80" viewBox="0 0 80 80" fill="none" xmlns="http://www.w3.org/2000/svg">
<g clip-path="url(#clip0)">
<path fill-rule="evenodd" clip-rule="evenodd" d="M19.612 18.29L19.775 18.346L38.017 25.25C38.6152 25.4731 39.113 25.9041 39.4193 26.4642C39.7256 27.0243 39.8199 27.676 39.685 28.3L39.644 28.468L35.431 43.525C34.9111 45.3766 34.0122 47.1 32.7914 48.5861C31.5706 50.0722 30.0544 51.2885 28.339 52.158C25.4055 53.6393 22.0413 54.0309 18.846 53.263L18.391 53.146L12.823 67.859C13.004 67.928 13.165 68.04 13.292 68.185L13.38 68.3L18.352 75.67C18.722 76.218 18.695 76.935 18.284 77.454C18.1002 77.6875 17.8515 77.8614 17.5691 77.9539C17.2868 78.0465 16.9833 78.0534 16.697 77.974L16.564 77.93L0.977005 72.032C0.676093 71.9191 0.419171 71.7129 0.243761 71.4436C0.0683507 71.1742 -0.0163585 70.8559 0.00200471 70.535C0.0174964 70.2381 0.120536 69.9524 0.298137 69.7139C0.475739 69.4754 0.719954 69.2949 1 69.195L1.134 69.153L9.74 66.922C9.927 66.873 10.123 66.872 10.31 66.917L10.448 66.96L16.018 52.243L15.901 52.188C15.852 52.164 15.805 52.138 15.756 52.113C15.593 52.029 15.431 51.943 15.272 51.853L15.155 51.785L14.902 51.635L14.652 51.481L14.571 51.428C14.391 51.312 14.214 51.192 14.041 51.068L14.004 51.042C13.2407 50.4936 12.5354 49.8687 11.899 49.177L11.828 49.097C11.7046 48.9614 11.5839 48.8234 11.466 48.683L11.326 48.51C11.1021 48.2327 10.8886 47.9472 10.686 47.654C10.621 47.561 10.557 47.469 10.496 47.375C10.443 47.295 10.393 47.213 10.343 47.132C10.0907 46.7292 9.85941 46.3137 9.65 45.887C9.616 45.819 9.58101 45.752 9.55 45.683C9.49601 45.571 9.44701 45.457 9.39701 45.343C9.35422 45.2468 9.31255 45.1501 9.27201 45.053C9.25401 45.008 9.233 44.965 9.215 44.92C8.99434 44.3656 8.80995 43.7974 8.663 43.219L8.649 43.165C8.09855 40.9965 8.08585 38.7265 8.61201 36.552C8.61701 36.529 8.62601 36.509 8.63301 36.487C8.82401 35.707 9.083 34.941 9.41101 34.198L9.615 33.755L16.427 19.681C16.7024 19.1051 17.176 18.6477 17.761 18.3924C18.3461 18.1372 19.0036 18.1012 19.613 18.291L19.612 18.29ZM60.225 18.346C60.8489 18.1064 61.5403 18.1107 62.1612 18.3582C62.7821 18.6056 63.2869 19.0779 63.575 19.681L70.385 33.755C70.8078 34.6286 71.1373 35.5443 71.368 36.487C71.375 36.509 71.384 36.529 71.389 36.551C71.9151 38.7244 71.9027 40.9934 71.353 43.161L71.338 43.221C71.2771 43.4594 71.2097 43.6962 71.136 43.931L71.085 44.089C70.994 44.369 70.895 44.646 70.785 44.92L70.728 45.055C70.688 45.15 70.648 45.245 70.606 45.339C70.556 45.455 70.505 45.571 70.451 45.685C70.421 45.75 70.388 45.813 70.356 45.877C70.144 46.311 69.91 46.732 69.655 47.138C69.605 47.217 69.557 47.296 69.507 47.373C69.444 47.469 69.379 47.563 69.314 47.657C69.1126 47.949 68.9001 48.2332 68.677 48.509L68.534 48.684C68.417 48.824 68.297 48.96 68.175 49.095L68.102 49.178C67.4659 49.8693 66.7609 50.4938 65.998 51.042L65.96 51.069C65.787 51.192 65.61 51.312 65.431 51.428L65.348 51.482C65.184 51.586 65.017 51.687 64.848 51.785L64.729 51.853C64.57 51.943 64.409 52.029 64.245 52.113L64.1 52.188C64.062 52.208 64.022 52.224 63.984 52.243L69.552 66.96C69.779 66.874 70.027 66.861 70.262 66.922L78.867 69.153C79.507 69.319 79.962 69.875 79.997 70.535C80.0154 70.8556 79.9308 71.1737 79.7556 71.4429C79.5803 71.712 79.3237 71.9181 79.023 72.031L63.436 77.93C63.136 78.0444 62.8073 78.0599 62.4979 77.9742C62.1885 77.8886 61.9145 77.7063 61.716 77.454C61.5157 77.2027 61.4009 76.894 61.3885 76.5728C61.3761 76.2517 61.4667 75.935 61.647 75.669L66.62 68.299C66.755 68.099 66.95 67.945 67.177 67.859L61.609 53.145C58.6631 53.9587 55.531 53.7769 52.699 52.628C52.3467 52.4858 52.0004 52.329 51.661 52.158C49.9457 51.2883 48.4297 50.0719 47.2089 48.5859C45.9881 47.0998 45.0892 45.3765 44.569 43.525L40.356 28.467C40.1728 27.8243 40.2385 27.1362 40.54 26.5397C40.8416 25.9433 41.3568 25.4825 41.983 25.249L60.225 18.346ZM9.966 69.286L4.258 70.766L14.942 74.809L11.644 69.921L9.966 69.286ZM70.034 69.286L68.356 69.921L65.058 74.809L75.742 70.766L70.034 69.286ZM18.828 20.518C18.7799 20.518 18.7323 20.5288 18.6889 20.5496C18.6455 20.5704 18.6073 20.6006 18.577 20.638L18.537 20.702L11.725 34.777L11.561 35.135L11.41 35.498L15.235 35.148C15.5374 35.1135 15.8413 35.1979 16.0826 35.3835C16.3238 35.5691 16.4834 35.8412 16.5275 36.1423C16.5717 36.4435 16.497 36.75 16.3192 36.997C16.1415 37.244 15.8746 37.4122 15.575 37.466L15.449 37.484L10.735 37.914C10.4277 39.7696 10.5788 41.6722 11.175 43.456L11.201 43.532C11.251 43.678 11.306 43.824 11.361 43.968C11.381 44.015 11.398 44.061 11.417 44.108C11.47 44.239 11.527 44.369 11.585 44.498C11.605 44.543 11.623 44.588 11.644 44.632C11.718 44.792 11.796 44.951 11.878 45.107C11.909 45.167 11.943 45.227 11.976 45.287C12.031 45.387 12.086 45.488 12.144 45.587C12.182 45.653 12.222 45.717 12.261 45.782L12.351 45.926L12.442 46.069L12.555 46.239C12.633 46.355 12.714 46.469 12.795 46.581L12.866 46.679C13.097 46.988 13.343 47.285 13.603 47.569L13.617 47.583C13.745 47.723 13.877 47.858 14.011 47.991L14.03 48.009C14.48 48.449 14.964 48.853 15.48 49.216L15.873 49.48L16.111 49.628L16.348 49.768L16.432 49.815L16.634 49.927L16.839 50.034L16.961 50.097C17.091 50.162 17.224 50.223 17.357 50.284L17.486 50.343C19.039 51.0183 20.7217 51.3435 22.4145 51.2955C24.1073 51.2474 25.7688 50.8273 27.281 50.065C28.6543 49.3689 29.8744 48.405 30.8695 47.2301C31.8645 46.0553 32.6144 44.6931 33.075 43.224L33.172 42.894L35.19 35.682L21.357 36.945C21.0565 36.9759 20.7557 36.8896 20.5173 36.7041C20.2789 36.5186 20.1214 36.2482 20.0775 35.9493C20.0336 35.6504 20.1069 35.3462 20.2819 35.1C20.457 34.8538 20.7203 34.6847 21.017 34.628L21.144 34.609L35.866 33.265L37.386 27.835C37.4048 27.7683 37.4017 27.6974 37.3772 27.6326C37.3528 27.5678 37.3082 27.5126 37.25 27.475L37.186 27.443L18.945 20.54C18.9077 20.5256 18.868 20.5181 18.828 20.518ZM61.464 20.703C61.4289 20.6291 61.3671 20.5712 61.291 20.5409C61.215 20.5107 61.1303 20.5104 61.054 20.54L42.814 27.443C42.7374 27.4712 42.6743 27.5272 42.6372 27.5998C42.6002 27.6725 42.5919 27.7565 42.614 27.835L44.134 33.265L48.621 33.675C48.7762 33.6866 48.9276 33.729 49.0662 33.7997C49.2049 33.8704 49.3281 33.968 49.4287 34.0867C49.5292 34.2055 49.6052 34.3431 49.652 34.4916C49.6989 34.64 49.7158 34.7962 49.7016 34.9512C49.6875 35.1062 49.6427 35.2569 49.5697 35.3944C49.4968 35.5319 49.3972 35.6535 49.2768 35.7521C49.1564 35.8508 49.0176 35.9244 48.8684 35.9689C48.7193 36.0133 48.5628 36.0276 48.408 36.011L44.81 35.682L46.828 42.894C47.2601 44.4318 48.0069 45.8631 49.0209 47.0973C50.035 48.3316 51.2942 49.3418 52.719 50.064C54.2311 50.8265 55.8926 51.2468 57.5854 51.295C59.2782 51.3432 60.9609 51.0182 62.514 50.343L62.644 50.283C62.777 50.223 62.909 50.162 63.04 50.097L63.161 50.035C63.299 49.965 63.435 49.891 63.569 49.815L63.652 49.768C64.4956 49.2816 65.2745 48.6906 65.97 48.009L65.989 47.991C66.124 47.859 66.255 47.723 66.383 47.584L66.397 47.569C66.657 47.285 66.902 46.989 67.133 46.679L67.203 46.582C67.3923 46.3229 67.5708 46.056 67.738 45.782C67.778 45.718 67.818 45.654 67.855 45.588C67.913 45.489 67.969 45.388 68.024 45.288L68.122 45.108C68.203 44.952 68.282 44.793 68.356 44.633L68.416 44.499C68.473 44.37 68.53 44.24 68.583 44.109L68.638 43.969C68.694 43.824 68.748 43.679 68.798 43.533L68.825 43.456C69.425 41.665 69.568 39.759 69.265 37.916L54.594 36.576C54.4388 36.5644 54.2874 36.522 54.1488 36.4513C54.0101 36.3806 53.8869 36.283 53.7863 36.1643C53.6858 36.0455 53.6098 35.9079 53.563 35.7594C53.5161 35.611 53.4992 35.4548 53.5134 35.2998C53.5275 35.1448 53.5724 34.9941 53.6453 34.8566C53.7182 34.7191 53.8178 34.5975 53.9382 34.4989C54.0586 34.4002 54.1974 34.3266 54.3466 34.2821C54.4957 34.2377 54.6523 34.2234 54.807 34.24L68.59 35.498C68.493 35.256 68.39 35.014 68.275 34.778L61.464 20.703ZM9.098 10.452C9.685 10.452 10.168 10.896 10.231 11.467L10.237 11.591V12.844H11.49C11.7799 12.8464 12.0579 12.9591 12.2676 13.1593C12.4773 13.3594 12.6029 13.6319 12.6188 13.9213C12.6347 14.2108 12.5398 14.4954 12.3533 14.7173C12.1669 14.9392 11.9028 15.0818 11.615 15.116L11.49 15.123H10.237V16.376C10.2325 16.6645 10.1188 16.9405 9.91877 17.1484C9.71877 17.3564 9.44737 17.4807 9.1593 17.4965C8.87122 17.5122 8.5879 17.4181 8.36645 17.2332C8.145 17.0483 8.0019 16.7863 7.966 16.5L7.959 16.376V15.123H6.706C6.41622 15.1204 6.13833 15.0074 5.92882 14.8072C5.71931 14.607 5.59391 14.3345 5.57812 14.0452C5.56232 13.7558 5.65732 13.4713 5.8438 13.2495C6.03028 13.0276 6.29423 12.8852 6.582 12.851L6.706 12.844H7.959V11.591C7.959 10.961 8.469 10.451 9.099 10.451L9.098 10.452ZM70.902 10.452C71.489 10.452 71.972 10.896 72.035 11.467L72.041 11.591V12.844H73.294C73.5839 12.8464 73.8619 12.9591 74.0716 13.1593C74.2813 13.3594 74.4069 13.6319 74.4228 13.9213C74.4387 14.2108 74.3438 14.4954 74.1573 14.7173C73.9709 14.9392 73.7068 15.0818 73.419 15.116L73.294 15.123H72.041V16.376C72.0365 16.6645 71.9228 16.9405 71.7228 17.1484C71.5228 17.3564 71.2514 17.4807 70.9633 17.4965C70.6752 17.5122 70.3919 17.4181 70.1705 17.2332C69.949 17.0483 69.8059 16.7863 69.77 16.5L69.763 16.376V15.123H68.51C68.2202 15.1204 67.9423 15.0074 67.7328 14.8072C67.5233 14.607 67.3979 14.3345 67.3821 14.0452C67.3663 13.7558 67.4613 13.4713 67.6478 13.2495C67.8343 13.0276 68.0982 12.8852 68.386 12.851L68.51 12.844H69.763V11.591C69.763 10.961 70.273 10.451 70.903 10.451L70.902 10.452ZM40 2.5C40.587 2.5 41.07 2.944 41.133 3.515L41.139 3.639V4.892H42.392C42.6819 4.89441 42.9599 5.00715 43.1696 5.20728C43.3793 5.40741 43.5049 5.67991 43.5208 5.96934C43.5367 6.25876 43.4418 6.54339 43.2553 6.76532C43.0689 6.98724 42.8048 7.1298 42.517 7.164L42.392 7.171H41.14V8.424C41.1355 8.71247 41.0218 8.98849 40.8218 9.19642C40.6218 9.40435 40.3504 9.52872 40.0623 9.54445C39.7742 9.56018 39.4909 9.4661 39.2695 9.28118C39.048 9.09626 38.9049 8.83426 38.869 8.548L38.862 8.424V7.17H37.609C37.3192 7.16735 37.0413 7.05444 36.8318 6.85423C36.6223 6.65402 36.4969 6.38154 36.4811 6.09217C36.4653 5.80281 36.5603 5.5183 36.7468 5.29647C36.9333 5.07465 37.1972 4.93217 37.485 4.898L37.609 4.891H38.862V3.64C38.862 3.011 39.372 2.501 40.002 2.501L40 2.5Z" fill="#2C6456"/>
</g>
<defs>
<clipPath id="clip0">
<rect width="80" height="80" fill="white"/>
</clipPath>
</defs>
</svg>
