<svg width="80" height="80" viewBox="0 0 80 80" fill="none" xmlns="http://www.w3.org/2000/svg">
<path fill-rule="evenodd" clip-rule="evenodd" d="M16.36 31.937C16.846 32.429 21.697 37.429 26.61 45.635C31.22 53.335 36.7 65.376 36.878 79.302L36.882 80H34.426C34.426 66.34 29.029 54.458 24.502 46.896C19.663 38.813 14.79 33.843 14.594 33.645L14.589 33.639L16.36 31.937ZM62.431 31.904L64.171 33.638L64.151 33.658C63.813 34.002 58.984 38.984 54.221 46.956C49.784 54.379 44.511 65.972 44.337 79.32L44.332 80H41.876C41.876 65.778 47.462 53.462 52.149 45.635C57.217 37.169 62.22 32.115 62.431 31.905V31.904ZM40.707 28.48V70.137H38.25V28.48H40.707ZM58.404 58.402V60.858H55.964V58.402H58.404ZM8.316 54.134V56.59H5.877V54.134H8.317H8.316ZM71.322 47.258L72.692 48.628L74.05 47.271L75.787 49.008L74.423 50.372L75.787 51.736L74.05 53.473L72.68 52.102L71.322 53.459L69.585 51.723L70.949 50.358L69.585 48.994L71.322 47.258ZM31.024 36.315V38.77H28.585V36.315H31.025H31.024ZM14.005 17.387L13.638 24.022L19.428 28.174L12.898 30.285L10.786 36.815L6.635 31.026L0 31.393L3.82 25.486L1.88 19.268L8.098 21.208L14.005 17.387ZM64.765 17.387L70.672 21.207L76.889 19.268L74.949 25.485L78.769 31.393L72.135 31.025L67.983 36.815L65.872 30.285L59.342 28.173L65.132 24.021L64.764 17.387H64.765ZM67.483 22.07L67.658 25.232L64.728 27.334L67.822 28.334L68.823 31.43L70.925 28.5L74.087 28.674L72.263 25.852L73.15 23.007L70.304 23.895L67.484 22.07H67.483ZM11.287 22.07L8.465 23.895L5.62 23.007L6.507 25.853L4.683 28.674L7.845 28.499L9.947 31.429L10.947 28.335L14.043 27.335L11.112 25.232L11.287 22.07ZM44.272 5.623C47.898 5.623 50.847 8.605 50.847 12.269C50.847 13.742 50.409 14.763 50.08 15.461L50.011 15.606L49.974 15.684C48.615 18.552 41.394 24.589 40.312 25.484L40.255 25.532L39.472 26.177L38.69 25.53C37.865 24.846 30.717 18.874 29.073 15.878L28.981 15.702L28.959 15.657C28.601 14.933 28.111 13.941 28.111 12.269C28.111 8.605 31.055 5.623 34.675 5.623C36.749 5.623 38.149 6.463 39.467 7.594C40.717 6.515 42.182 5.624 44.272 5.624V5.623ZM54.422 23.357V25.813H51.982V23.357H54.422ZM44.272 8.079C42.832 8.079 41.86 8.699 40.558 9.919L40.325 10.141L39.483 10.951L38.633 10.151C37.262 8.861 36.311 8.079 34.675 8.079C32.371 8.079 30.567 9.919 30.567 12.269C30.567 13.283 30.813 13.859 31.091 14.428L31.161 14.57L31.184 14.615C32.032 16.334 36.344 20.327 39.475 22.983C42.465 20.456 46.721 16.533 47.683 14.774L47.755 14.633L47.793 14.552C48.087 13.933 48.392 13.294 48.392 12.269C48.392 9.919 46.582 8.079 44.272 8.079ZM14.094 9.21L15.464 10.58L16.822 9.223L18.559 10.96L17.195 12.324L18.559 13.688L16.822 15.424L15.452 14.054L14.094 15.411L12.357 13.674L13.721 12.31L12.357 10.946L14.094 9.209V9.21ZM60.304 0L61.674 1.37L63.032 0.015L64.768 1.751L63.404 3.115L64.768 4.479L63.032 6.216L61.661 4.846L60.304 6.203L58.567 4.466L59.93 3.1L58.566 1.736L60.304 0Z" fill="#2C6456"/>
</svg>
