<svg width="12" height="27" viewBox="0 0 12 27" fill="none" xmlns="http://www.w3.org/2000/svg">
<path d="M2.59374 5.22904C2.59374 5.90945 2.59374 8.94641 2.59374 8.94641H0V13.492H2.59374V27H7.92182V13.4924H11.4972C11.4972 13.4924 11.8321 11.3128 11.9944 8.92965C11.529 8.92965 7.94197 8.92965 7.94197 8.92965C7.94197 8.92965 7.94197 6.28516 7.94197 5.82163C7.94197 5.3571 8.52289 4.73224 9.09706 4.73224C9.67015 4.73224 10.8797 4.73224 12 4.73224C12 4.11335 12 1.97494 12 1.62376e-08C10.5044 1.62376e-08 8.80298 1.62376e-08 8.05299 1.62376e-08C2.46203 -0.000313855 2.59374 4.54982 2.59374 5.22904Z" fill="#2C6456"/>
</svg>
